<svg xmlns="http://www.w3.org/2000/svg" viewBox="0 0 1600 900"><defs><linearGradient id="bg" x1="0" x2="1" y1="0" y2="1"><stop offset="0%" stop-color="#172132"/><stop offset="100%" stop-color="#503142"/></linearGradient><radialGradient id="g" cx="78%" cy="20%" r="24%"><stop offset="0%" stop-color="#fff0c6" stop-opacity=".95"/><stop offset="100%" stop-color="#fff0c6" stop-opacity="0"/></radialGradient></defs><rect width="1600" height="900" fill="url(#bg)"/><circle cx="1260" cy="190" r="180" fill="url(#g)"/><path d="M0 760 C220 670 340 670 520 720 C730 780 900 730 1050 650 C1240 550 1420 660 1600 700 L1600 900 L0 900 Z" fill="#0d1118" opacity=".88"/><g opacity=".95"><path d="M180 760 L340 300 L500 760 Z" fill="#151b29"/><path d="M680 760 L860 220 L1040 760 Z" fill="#192235"/><rect x="326" y="430" width="34" height="240" fill="#d9ba79" opacity=".64"/><rect x="844" y="370" width="42" height="300" fill="#d9ba79" opacity=".52"/><path d="M1120 760 C1160 620 1240 510 1330 460 C1270 550 1272 620 1320 680 C1360 730 1420 750 1500 760 Z" fill="#d9ba79" opacity=".72"/></g><text x="82" y="110" fill="#d9ba79" font-family="Arial,sans-serif" font-size="27" font-weight="700" letter-spacing="9">À LA UNE</text><text x="82" y="810" fill="#f5f1e8" font-family="Georgia,serif" font-size="92" font-weight="700">Project Lamordia</text></svg>